<?xml version="1.0" encoding="utf-8"?>
<!-- Generator: Adobe Illustrator 23.0.6, SVG Export Plug-In . SVG Version: 6.00 Build 0)  -->
<svg version="1.1" id="Layer_1" xmlns="http://www.w3.org/2000/svg" xmlns:xlink="http://www.w3.org/1999/xlink" x="0px" y="0px"
	 viewBox="0 0 960 540" style="enable-background:new 0 0 960 540;" xml:space="preserve">
<style type="text/css">
	.st0{fill:none;}
	.st1{fill-rule:evenodd;clip-rule:evenodd;fill:#4285F4;}
	.st2{fill-rule:evenodd;clip-rule:evenodd;fill:#9FC1F9;}
	.st3{fill-rule:evenodd;clip-rule:evenodd;fill:#EA4335;}
	.st4{fill-rule:evenodd;clip-rule:evenodd;fill:#EF9B95;}
	.st5{fill-rule:evenodd;clip-rule:evenodd;fill:#34A853;}
	.st6{fill-rule:evenodd;clip-rule:evenodd;fill:#92DDA6;}
	.st7{fill-rule:evenodd;clip-rule:evenodd;fill:#FDDF87;}
	.st8{fill-rule:evenodd;clip-rule:evenodd;fill:#F29900;}
	.st9{fill-rule:evenodd;clip-rule:evenodd;fill:#FAD2CF;}
</style>
<rect class="st0" width="960" height="540"/>
<path class="st1" d="M850.6,333.1c-22.2,0-40.2,17.9-40.2,40.1v33h14v-33c0-14.5,11.7-26.2,26.2-26.2c14.5,0,26.2,11.7,26.2,26.2v32
	h13.9v-32C890.8,351,872.8,333.1,850.6,333.1z"/>
<path class="st2" d="M866,397.8c-5.1,0-9.1,4.1-9.1,9v46.8c0,5.1,4,9,9.1,9h33.9c5.1,0,9.1-4,9.1-9v-46.8c0-5-4.1-9-9.1-9H866z"/>
<path class="st1" d="M868.6,412.8c-0.1,0-0.2,0.1-0.2,0.2v32.3c0,4.4,3.6,8,8,8h14.5c4.4,0,7.8-3.5,7.8-7.8v-32.6H868.6z"/>
<path class="st2" d="M800.9,397.8c-4.3,0-7.8,3.4-7.8,7.8V455c0,4.3,3.4,7.8,7.8,7.8H836c4.3,0,7.8-3.4,7.8-7.8v-49.4
	c0-4.3-3.5-7.8-7.8-7.8H800.9z"/>
<path class="st1" d="M879.8,406.1c-1.6,0-3.2,1.1-3.1,3.2h6.3C883,407.2,881.4,406.1,879.8,406.1z"/>
<path class="st1" d="M888.5,406c-1.6,0-3.2,1.1-3.1,3.2h6.3C891.7,407.1,890.1,406,888.5,406z"/>
<path class="st3" d="M122.5,376.2V387c10,0,18.1,8.1,18.1,18.2c0,10-8.1,18.1-18.1,18.1V434c15.9,0,28.8-12.9,28.8-28.8
	C151.4,389.2,138.5,376.2,122.5,376.2z"/>
<path class="st4" d="M52.6,359.8v83.4c0,11.7,9.5,21.3,21.3,21.3h33.5c11.7,0,21.2-9.6,21.2-21.3v-83.4H52.6z"/>
<path class="st3" d="M75.3,424c-2,0-3.6,1.6-3.6,3.6c0,2.1,1.6,3.7,3.6,3.7c2.1,0,3.7-1.6,3.7-3.7C79,425.7,77.3,424,75.3,424z"/>
<path class="st3" d="M62.8,424c-2,0-3.6,1.6-3.6,3.6c0,2.1,1.6,3.7,3.6,3.7c2.1,0,3.7-1.6,3.7-3.7C66.5,425.7,64.9,424,62.8,424z"/>
<path class="st3" d="M101.4,388.4v16.9c0,1.4,0,2.9,0,4.5c0.2,7.5,0.3,16-4.8,21.2c-3.4,3.4-8.6,5.2-16.1,5.2H45.8v3.2h34.6
	c8.4,0,14.5-2,18.4-6.1c6-6.2,5.9-15.8,5.8-23.5v-4.4v-16.9H101.4z"/>
<path class="st3" d="M97.6,387.3v3.3h10.6v-3.3H97.6z"/>
<path class="st5" d="M640.5,339.8c-5,0-9,4-9,9v107.4c0,5,4,9,9,9h65.2c5,0,9-4.1,9-9V348.7c0-5-4-9-9-9H640.5z"/>
<path class="st6" d="M631.6,346.9v106.6h57.8c4.1,0,7.5-3.4,7.5-7.5v-91.5c0-4.2-3.4-7.6-7.5-7.6H631.6z"/>
<path class="st5" d="M633.8,396.1c-2.2,0-4.3,1.4-4.3,4.3h8.6C638.1,397.5,636,396.1,633.8,396.1z"/>
<path class="st5" d="M642.7,411.7v4.7c0,7.1,5.7,12.6,12.7,12.6c0.4,0,0.8,0,1.2-0.1c6.5-0.8,11.5-6.4,11.4-13v-4.3H642.7z"/>
<path class="st5" d="M647.6,395.8c-2.2,0-4.3,1.4-4.3,4.3h8.6C651.9,397.3,649.7,395.8,647.6,395.8z"/>
<path class="st7" d="M252.1,385.3c-4.5,0-8,3.5-8,8v53.9h108.3v-53.9c0-4.5-3.6-8-8-8H252.1z"/>
<path class="st8" d="M229.4,445.5c-4.4,0-7.9,3.4-7.8,7.8c-0.1,4.2,3.4,7.7,7.7,7.7l137.3,1.1c4.3,0,7.8-3.5,7.8-7.8
	c0-4.2-3.4-7.8-7.7-7.8L229.4,445.5z"/>
<path class="st8" d="M308.6,403.6c-1.6,0-3,1.4-3,3c0,1.7,1.4,3,3,3c1.6,0,3-1.3,3-3C311.7,405,310.3,403.6,308.6,403.6z"/>
<path class="st8" d="M295.4,403.6c-1.7,0-3,1.4-3,3c0,1.7,1.3,3,3,3c1.6,0,3-1.3,3-3C298.4,405,297,403.6,295.4,403.6z"/>
<path class="st8" d="M274.2,416.2v3.2h44.5v-3.2H274.2z"/>
<path class="st8" d="M288.1,418.8l-13.9,0.1c0.1,3.4,1.6,6.6,4.1,8.9c2.8,2.3,6.2,3.6,9.8,3.6V418.8z"/>
<path class="st8" d="M286.8,418.5v12.7h13.6v-12.7H286.8z"/>
<path class="st5" d="M641.1,396.5c-0.2,4-3.4,7.2-7.5,7.2c-4,0-7.3-3.2-7.5-7.2H641.1z M623,393.3v3.1c0,5.9,4.8,10.7,10.7,10.7
	c5.9,0,10.7-4.8,10.8-10.7v-3.1H623z"/>
<path class="st5" d="M661,396.5v0.9c-0.2,4-3.4,7.2-7.5,7.2c-4,0-7.3-3.2-7.5-7.2v-0.9H661z M642.8,393.3v4
	c0,5.9,4.8,10.7,10.7,10.8c5.9-0.1,10.7-4.8,10.8-10.8v-4H642.8z"/>
<path class="st9" d="M105.5,246.3l14.5,6.1l-14.4,34.3L91,280.7L105.5,246.3z"/>
<path class="st2" d="M297.9,157.2l-0.6-15.7l37.2-1.5l0.6,15.7L297.9,157.2z"/>
<path class="st9" d="M186.4,92.7l13.7-7.7l18.3,32.5l-13.7,7.7L186.4,92.7z"/>
<path class="st7" d="M257.3,233.9l5.2-14.8l35.1,12.4l-5.2,14.8L257.3,233.9z"/>
<path class="st7" d="M418.4,75.1l14.5,6.1l-14.4,34.3l-14.5-6.1L418.4,75.1z"/>
<path class="st2" d="M404.4,246.3l14.5,6.1l-14.4,34.3l-14.5-6.1L404.4,246.3z"/>
<path class="st6" d="M582.9,137.1l-6.7,14.2l-33.8-15.8l6.7-14.2L582.9,137.1z"/>
<path class="st7" d="M522.2,215.4l-15.4,3.3l-7.7-36.5l15.4-3.3L522.2,215.4z"/>
<path class="st9" d="M847.9,178.6l14.5,6.1L848,219l-14.5-6.1L847.9,178.6z"/>
<path class="st6" d="M639.3,263.5l-0.6-15.7l37.2-1.5l0.6,15.7L639.3,263.5z"/>
<path class="st7" d="M709.7,88.8l13.7-7.7l18.3,32.5l-13.7,7.7L709.7,88.8z"/>
<path class="st2" d="M801.8,84.8l14.5,6.1l-14.4,34.3l-14.5-6.1L801.8,84.8z"/>
<path class="st1" d="M446.7,427.1l-1.3,9.2c0,13.5,5.9,23.3,15.1,29.6c6.5,4.4,14.8,4.9,23.9,4.9c2.5,0,5,0,7.6,0c2.6,0,5.1,0,7.6,0
	c9.2,0,17.4-0.5,23.9-4.9c9.2-6.3,15-16,15-29.6l-1.2-9.2H446.7z"/>
<path class="st1" d="M494.9,427.1L494.9,427.1L494.9,427.1z"/>
<path class="st2" d="M492.2,344.6c-18.6,0-33.9,3.4-35.5,7.7l-10.1,74.8h90.7l-9.8-74.8C526,348.1,510.7,344.6,492.2,344.6z"/>
<path class="st1" d="M501.3,352c-1.4,0-2.6,0.3-2.6,0.8c0,0.4,1.2,0.8,2.6,0.8c1.4,0,2.6-0.4,2.6-0.8
	C503.9,352.3,502.7,352,501.3,352z"/>
<path class="st1" d="M487.1,352c-1.4,0-2.6,0.3-2.6,0.8c0,0.4,1.2,0.8,2.6,0.8c1.4,0,2.6-0.4,2.6-0.8
	C489.8,352.3,488.6,352,487.1,352z"/>
<path class="st1" d="M494.2,354.6c-1.4,0-2.6,0.3-2.6,0.8c0,0.4,1.2,0.8,2.6,0.8c1.4,0,2.6-0.4,2.6-0.8
	C496.8,354.9,495.6,354.6,494.2,354.6z"/>
<path class="st1" d="M497.5,388c-1.2,0-2.4,0.4-3.3,1.3c-0.9,0.8-1.3,5.7-1.3,7.3v0.9h9.6l0.6-1.8l0.8,1.8h8.2l0.6-2.4l0.3,2.4h4.8
	v-1c0-1.5-0.4-6.4-1.3-7.2c-0.9-0.8-2.1-1.3-3.4-1.3c-0.1,0-0.2,0-0.3,0h-15C497.7,388,497.6,388,497.5,388z"/>
<path class="st1" d="M511.5,379.5c-2.5,0-5,1.7-5,5h3.1c0-1.2,0.9-1.8,1.8-1.8c0.9,0,1.8,0.6,1.8,1.8h3.2
	C516.5,381.1,514,379.5,511.5,379.5z"/>
<path class="st1" d="M499,379.5c-2.5,0-5,1.7-5,5h3.1c0-1.2,0.9-1.8,1.8-1.8c0.9,0,1.8,0.6,1.8,1.8h3.1
	C503.9,381.1,501.5,379.5,499,379.5z"/>
</svg>
